# xmcd CD database file
#
# Track frame offsets:
#	150
#	16169
#	36460
#	52225
#	65931
#	79666
#	94300
#	110627
#	123714
#	137089
#	153812
#	171448
#
# Disc length: 2467 seconds
#
# Revision: 0
# Processed by: cddbd v1.5.2PL0 Copyright (c) Steve Scherf et al.
# Submitted via: NeoAudio 9.9.9
#
DISCID=b009a10c
DTITLE=get up and dance workshop 48 - get up and dance workshop 48
DYEAR=2006
DGENRE=Country
TTITLE0=Wonder Woman
TTITLE1=Don't feel like dancing
TTITLE2=Handyman
TTITLE3=Horsepower
TTITLE4=Rubitin
TTITLE5=Strike 1
TTITLE6=Leaving of Liverpool xx
TTITLE7=A Lust Appetite
TTITLE8=Crazy
TTITLE9=Lauguage of love
TTITLE10=Sweet and Sour
TTITLE11=No No never
EXTD=YEAR: 2006
EXTT0=
EXTT1=
EXTT2=
EXTT3=
EXTT4=
EXTT5=
EXTT6=
EXTT7=
EXTT8=
EXTT9=
EXTT10=
EXTT11=
PLAYORDER=
